HIERARCHY
ROOT Hips
{
  OFFSET 8.91173 92.5249 -21.9562
  CHANNELS 6 Xposition Yposition Zposition Zrotation Xrotation Yrotation
  JOINT Spine
  {
    OFFSET 0 14.0932 -1.51142
    CHANNELS 6 Xposition Yposition Zposition Zrotation Xrotation Yrotation
    JOINT Spine1
    {
      OFFSET 0 8.6966 0
      CHANNELS 6 Xposition Yposition Zposition Zrotation Xrotation Yrotation
      JOINT Spine2
      {
        OFFSET 0 8.6966 0
        CHANNELS 6 Xposition Yposition Zposition Zrotation Xrotation Yrotation
        JOINT Spine3
        {
          OFFSET 0 8.6966 0
          CHANNELS 6 Xposition Yposition Zposition Zrotation Xrotation Yrotation
          JOINT Neck
          {
            OFFSET 0 11.1813 1.11813
            CHANNELS 6 Xposition Yposition Zposition Zrotation Xrotation Yrotation
            JOINT Neck1
            {
              OFFSET 0 5.70631 0
              CHANNELS 6 Xposition Yposition Zposition Zrotation Xrotation Yrotation
              JOINT Head
              {
                OFFSET 0 5.70631 0
                CHANNELS 6 Xposition Yposition Zposition Zrotation Xrotation Yrotation
                End Site
                {
                  OFFSET 0 9.71257 0
                }
              }
            }
          }
          JOINT RightShoulder
          {
            OFFSET 0 7.98668 5.19711
            CHANNELS 6 Xposition Yposition Zposition Zrotation Xrotation Yrotation
            JOINT RightArm
            {
              OFFSET 0 18.3158 0
              CHANNELS 6 Xposition Yposition Zposition Zrotation Xrotation Yrotation
              JOINT RightForeArm
              {
                OFFSET 0 28.8742 0
                CHANNELS 6 Xposition Yposition Zposition Zrotation Xrotation Yrotation
                JOINT RightHand
                {
                  OFFSET 0 23.8772 0
                  CHANNELS 6 Xposition Yposition Zposition Zrotation Xrotation Yrotation
                  JOINT RightHandThumb1
                  {
                    OFFSET -2.41094 4.67063 3.47303
                    CHANNELS 6 Xposition Yposition Zposition Zrotation Xrotation Yrotation
                    JOINT RightHandThumb2
                    {
                      OFFSET 0 3.95207 0
                      CHANNELS 6 Xposition Yposition Zposition Zrotation Xrotation Yrotation
                      JOINT RightHandThumb3
                      {
                        OFFSET 0 2.15568 0
                        CHANNELS 6 Xposition Yposition Zposition Zrotation Xrotation Yrotation
                        End Site
                        {
                          OFFSET 0 1.91616 0
                        }
                      }
                    }
                  }
                  JOINT RightHandIndex1
                  {
                    OFFSET 0 12.455 2.51496
                    CHANNELS 6 Xposition Yposition Zposition Zrotation Xrotation Yrotation
                    JOINT RightHandIndex2
                    {
                      OFFSET 0 4.79039 0
                      CHANNELS 6 Xposition Yposition Zposition Zrotation Xrotation Yrotation
                      JOINT RightHandIndex3
                      {
                        OFFSET 0 2.63472 0
                        CHANNELS 6 Xposition Yposition Zposition Zrotation Xrotation Yrotation
                        End Site
                        {
                          OFFSET 0 1.91616 0
                        }
                      }
                    }
                  }
                  JOINT RightHandMiddle1
                  {
                    OFFSET 0 12.455 -0.0798399
                    CHANNELS 6 Xposition Yposition Zposition Zrotation Xrotation Yrotation
                    JOINT RightHandMiddle2
                    {
                      OFFSET 0 5.38919 0
                      CHANNELS 6 Xposition Yposition Zposition Zrotation Xrotation Yrotation
                      JOINT RightHandMiddle3
                      {
                        OFFSET 0 3.11376 0
                        CHANNELS 6 Xposition Yposition Zposition Zrotation Xrotation Yrotation
                        End Site
                        {
                          OFFSET 0 2.03592 0
                        }
                      }
                    }
                  }
                  JOINT RightHandRing1
                  {
                    OFFSET 0 11.0778 -2.67464
                    CHANNELS 6 Xposition Yposition Zposition Zrotation Xrotation Yrotation
                    JOINT RightHandRing2
                    {
                      OFFSET 0 4.91015 0
                      CHANNELS 6 Xposition Yposition Zposition Zrotation Xrotation Yrotation
                      JOINT RightHandRing3
                      {
                        OFFSET 0 3.11376 0
                        CHANNELS 6 Xposition Yposition Zposition Zrotation Xrotation Yrotation
                        End Site
                        {
                          OFFSET 0 2.03592 0
                        }
                      }
                    }
                  }
                  JOINT RightHandPinky1
                  {
                    OFFSET 0 9.70055 -5.26943
                    CHANNELS 6 Xposition Yposition Zposition Zrotation Xrotation Yrotation
                    JOINT RightHandPinky2
                    {
                      OFFSET 0 3.95207 0
                      CHANNELS 6 Xposition Yposition Zposition Zrotation Xrotation Yrotation
                      JOINT RightHandPinky3
                      {
                        OFFSET 0 2.15568 0
                        CHANNELS 6 Xposition Yposition Zposition Zrotation Xrotation Yrotation
                        End Site
                        {
                          OFFSET 0 1.91616 0
                        }
                      }
                    }
                  }
                }
              }
            }
          }
          JOINT LeftShoulder
          {
            OFFSET 0 7.98668 5.19711
            CHANNELS 6 Xposition Yposition Zposition Zrotation Xrotation Yrotation
            JOINT LeftArm
            {
              OFFSET 0 18.3158 0
              CHANNELS 6 Xposition Yposition Zposition Zrotation Xrotation Yrotation
              JOINT LeftForeArm
              {
                OFFSET 0 28.8742 0
                CHANNELS 6 Xposition Yposition Zposition Zrotation Xrotation Yrotation
                JOINT LeftHand
                {
                  OFFSET 0 23.8772 0
                  CHANNELS 6 Xposition Yposition Zposition Zrotation Xrotation Yrotation
                  JOINT LeftHandThumb1
                  {
                    OFFSET 2.41094 4.67063 3.47303
                    CHANNELS 6 Xposition Yposition Zposition Zrotation Xrotation Yrotation
                    JOINT LeftHandThumb2
                    {
                      OFFSET 0 3.95207 0
                      CHANNELS 6 Xposition Yposition Zposition Zrotation Xrotation Yrotation
                      JOINT LeftHandThumb3
                      {
                        OFFSET 0 2.15568 0
                        CHANNELS 6 Xposition Yposition Zposition Zrotation Xrotation Yrotation
                        End Site
                        {
                          OFFSET 0 1.6 0
                        }
                      }
                    }
                  }
                  JOINT LeftHandIndex1
                  {
                    OFFSET 0 12.455 2.51496
                    CHANNELS 6 Xposition Yposition Zposition Zrotation Xrotation Yrotation
                    JOINT LeftHandIndex2
                    {
                      OFFSET 0 4.79039 0
                      CHANNELS 6 Xposition Yposition Zposition Zrotation Xrotation Yrotation
                      JOINT LeftHandIndex3
                      {
                        OFFSET 0 2.63472 0
                        CHANNELS 6 Xposition Yposition Zposition Zrotation Xrotation Yrotation
                        End Site
                        {
                          OFFSET 0 1.91616 0
                        }
                      }
                    }
                  }
                  JOINT LeftHandMiddle1
                  {
                    OFFSET 0 12.455 -0.0798399
                    CHANNELS 6 Xposition Yposition Zposition Zrotation Xrotation Yrotation
                    JOINT LeftHandMiddle2
                    {
                      OFFSET 0 5.38919 0
                      CHANNELS 6 Xposition Yposition Zposition Zrotation Xrotation Yrotation
                      JOINT LeftHandMiddle3
                      {
                        OFFSET 0 3.11376 0
                        CHANNELS 6 Xposition Yposition Zposition Zrotation Xrotation Yrotation
                        End Site
                        {
                          OFFSET 0 2.03592 0
                        }
                      }
                    }
                  }
                  JOINT LeftHandRing1
                  {
                    OFFSET 0 11.0778 -2.67464
                    CHANNELS 6 Xposition Yposition Zposition Zrotation Xrotation Yrotation
                    JOINT LeftHandRing2
                    {
                      OFFSET 0 4.91015 0
                      CHANNELS 6 Xposition Yposition Zposition Zrotation Xrotation Yrotation
                      JOINT LeftHandRing3
                      {
                        OFFSET 0 3.11376 0
                        CHANNELS 6 Xposition Yposition Zposition Zrotation Xrotation Yrotation
                        End Site
                        {
                          OFFSET 0 2.03592 0
                        }
                      }
                    }
                  }
                  JOINT LeftHandPinky1
                  {
                    OFFSET 0 9.70055 -5.26943
                    CHANNELS 6 Xposition Yposition Zposition Zrotation Xrotation Yrotation
                    JOINT LeftHandPinky2
                    {
                      OFFSET 0 3.95207 0
                      CHANNELS 6 Xposition Yposition Zposition Zrotation Xrotation Yrotation
                      JOINT LeftHandPinky3
                      {
                        OFFSET 0 2.15568 0
                        CHANNELS 6 Xposition Yposition Zposition Zrotation Xrotation Yrotation
                        End Site
                        {
                          OFFSET 0 1.91616 0
                        }
                      }
                    }
                  }
                }
              }
            }
          }
        }
      }
    }
  }
  JOINT RightUpLeg
  {
    OFFSET -10.0656 0 0
    CHANNELS 6 Xposition Yposition Zposition Zrotation Xrotation Yrotation
    JOINT RightLeg
    {
      OFFSET 0 -42.9874 0
      CHANNELS 6 Xposition Yposition Zposition Zrotation Xrotation Yrotation
      JOINT RightFoot
      {
        OFFSET 0 -44.625 0
        CHANNELS 6 Xposition Yposition Zposition Zrotation Xrotation Yrotation
        JOINT RightForeFoot
        {
          OFFSET 0 -3.74821 0
          CHANNELS 6 Xposition Yposition Zposition Zrotation Xrotation Yrotation
          JOINT RightToeBase
          {
            OFFSET 0 0 14.6792
            CHANNELS 6 Xposition Yposition Zposition Zrotation Xrotation Yrotation
            End Site
            {
              OFFSET 0 0 10.3604
            }
          }
        }
      }
    }
  }
  JOINT LeftUpLeg
  {
    OFFSET 10.0656 0 0
    CHANNELS 6 Xposition Yposition Zposition Zrotation Xrotation Yrotation
    JOINT LeftLeg
    {
      OFFSET 0 -42.9874 0
      CHANNELS 6 Xposition Yposition Zposition Zrotation Xrotation Yrotation
      JOINT LeftFoot
      {
        OFFSET 0 -44.625 0
        CHANNELS 6 Xposition Yposition Zposition Zrotation Xrotation Yrotation
        JOINT LeftForeFoot
        {
          OFFSET 0 -3.74821 0
          CHANNELS 6 Xposition Yposition Zposition Zrotation Xrotation Yrotation
          JOINT LeftToeBase
          {
            OFFSET 0 0 14.6792
            CHANNELS 6 Xposition Yposition Zposition Zrotation Xrotation Yrotation
            End Site
            {
              OFFSET 0 0 10.6728
            }
          }
        }
      }
    }
  }
}
MOTION
Frames:	4
Frame Time:	0.00833333
11.7942 92.0493 -24.1693 -7.63899 8.42335 -165.715 0 14.0932 -1.51142 -6.87812 8.8297 0.0641457 0 8.6966 0 -2.23206 6.09424 0.878525 3.55271e-015 8.6966 0 -1.91404 2.63903 0.465877 0 8.6966 3.55271e-015 2.25977 1.30481 -1.02661 0 11.1813 1.11813 -1.33125 6.05032 -1.74991 3.55271e-015 5.70631 -3.55271e-015 -0.846516 -3.96479 -9.02259 0 5.70631 -3.55271e-015 -0.0710885 -17.8029 -0.66607 0 7.98668 5.19711 102.28 -13.9721 3.00846 0 18.3158 0 60.7251 17.5182 -22.8936 -1.42109e-014 28.8742 0 -179.991 86.4309 175.452 0 23.8772 0 11.2542 -6.85027 0.000113453 -2.41094 4.67063 3.47303 -8.33558 28.5542 4.01897 -1.42109e-014 3.95207 0 -6.36111e-015 3.18055e-015 -3.18055e-015 0 2.15568 0 -3.53113e-031 6.36111e-015 3.18055e-015 0 12.455 2.51496 -0.394378 -3.18055e-015 -4.77083e-015 1.42109e-014 4.79039 0 -9.54166e-015 -4.77083e-015 1.59028e-015 0 2.63472 0 9.54166e-015 3.18055e-015 -5.56597e-015 0 12.455 -0.0798399 8.14976 -3.18055e-015 5.56597e-015 0 5.38919 0 -6.36111e-015 -1.59028e-015 5.56597e-015 2.84217e-014 3.11376 0 6.36111e-015 -3.18055e-015 2.38542e-015 0 11.0778 -2.67464 18.109 -7.95139e-016 -3.18055e-015 0 4.91015 1.42109e-014 -2.64834e-031 4.77083e-015 3.18055e-015 1.42109e-014 3.11376 -1.42109e-014 -2.20695e-032 1.59028e-015 7.95139e-016 1.42109e-014 9.70055 -5.26943 44.3946 -5.96354e-015 -0 0 3.95207 -1.42109e-014 3.31043e-032 1.19271e-015 -1.59028e-015 0 2.15568 1.42109e-014 -1.59028e-015 4.37326e-015 1.59028e-015 0 7.98668 5.19711 -102.003 -12.4426 -2.6228 2.84217e-014 18.3158 0 -58.376 15.8158 32.5788 -7.10543e-015 28.8742 -1.77636e-015 -179.997 85.046 -178.26 0 23.8772 0 -9.89989 -0.713352 -1.12558e-005 2.41094 4.67063 3.47303 14.6421 40.2696 -9.58682 0 3.95207 0 1.59028e-015 3.18055e-015 -1.59028e-015 0 2.15568 7.10543e-015 1.59028e-015 0 1.59028e-015 -7.10543e-015 12.455 2.51496 11.5362 -3.97569e-016 -3.37934e-015 7.10543e-015 4.79039 1.42109e-014 -1.59028e-015 0 -2.98177e-016 0 2.63472 0 -3.18055e-015 7.95139e-016 -2.98177e-016 -7.10543e-015 12.455 -0.0798399 -1.23719 0 3.97569e-016 7.10543e-015 5.38919 0 2.06902e-032 1.98785e-015 -5.96354e-016 7.10543e-015 3.11376 1.42109e-014 -3.18055e-015 0 -9.93923e-016 -7.10543e-015 11.0778 -2.67464 -16.9799 1.59028e-015 3.97569e-016 0 4.91015 0 3.18055e-015 0 5.56597e-015 0 3.11376 0 3.18055e-015 3.97569e-016 -3.97569e-016 -7.10543e-015 9.70055 -5.26943 -49.0822 -3.97569e-015 3.97569e-015 0 3.95207 0 3.18055e-015 6.95746e-015 -2.38542e-015 0 2.15568 -1.42109e-014 3.18055e-015 6.55989e-015 -2.38542e-015 -10.0656 0 0 -5.9351 5.73568 -15.8961 -3.55271e-015 -42.9874 0 2.81247e-016 16.236 -8.28167e-016 1.06581e-014 -44.625 3.55271e-015 -3.00262 -16.8462 -7.61378 3.55271e-015 -3.74821 0 5.96354e-016 7.95139e-016 1.59028e-015 0 -4.44089e-016 14.6792 -1.09215e-017 13.6653 -1.63661e-015 10.0656 1.42109e-014 0 -0.0375553 4.36442 15.3403 0 -42.9874 0 -9.61037e-016 21.7658 -1.02741e-014 0 -44.625 3.55271e-015 -2.60639 -9.23703 -5.46225 0 -3.74821 1.77636e-015 7.95139e-016 7.95139e-016 -3.18055e-015 -8.88178e-016 0 14.6792 -4.93317e-017 -0.888609 -3.18094e-015 
11.8161 92.051 -24.1891 -7.61737 8.44389 -165.806 0 14.0932 -1.51142 -6.88875 8.82259 0.0514789 3.55271e-015 8.6966 -3.55271e-015 -2.24151 6.09401 0.884286 3.55271e-015 8.6966 0 -1.91319 2.63866 0.494568 0 8.6966 -7.10543e-015 2.2741 1.29845 -1.01611 0 11.1813 1.11813 -1.32715 6.01087 -1.73685 -3.55271e-015 5.70631 0 -0.810098 -3.98335 -8.9584 -7.10543e-015 5.70631 -3.55271e-015 -0.0319579 -17.8125 -0.665427 3.55271e-015 7.98668 5.19711 102.337 -13.9695 3.02233 0 18.3158 3.55271e-015 60.9302 17.4107 -22.0828 -1.42109e-014 28.8742 -1.77636e-015 -179.988 86.3329 175.223 0 23.8772 1.42109e-014 11.4337 -6.82631 0.000151263 -2.41094 4.67063 3.47303 -7.29207 28.0668 3.4625 1.42109e-014 3.95207 7.10543e-015 1.76556e-031 -3.18055e-015 3.18055e-015 0 2.15568 1.42109e-014 -3.18055e-015 -3.18055e-015 7.95139e-015 0 12.455 2.51496 0.280364 -3.18055e-015 -4.77083e-015 0 4.79039 -1.42109e-014 0 0 -3.97569e-015 0 2.63472 -1.42109e-014 8.82781e-032 -6.36111e-015 7.95139e-016 1.42109e-014 12.455 -0.0798399 9.08533 -6.36111e-015 -1.59028e-015 1.42109e-014 5.38919 0 -6.36111e-015 -3.97569e-015 5.56597e-015 0 3.11376 0 3.18055e-015 -2.38542e-015 1.59028e-015 0 11.0778 -2.67464 19.0321 -4.77083e-015 1.59028e-015 0 4.91015 -1.42109e-014 4.41391e-032 -7.95139e-016 3.18055e-015 0 3.11376 0 -6.36111e-015 -1.59028e-015 -3.18055e-015 1.42109e-014 9.70055 -5.26943 45.4476 -2.5842e-015 7.95139e-015 0 3.95207 -1.42109e-014 -1.59028e-015 -4.17448e-015 1.59028e-015 0 2.15568 -1.42109e-014 1.59028e-015 -1.19271e-015 -0 3.55271e-015 7.98668 5.19711 -101.988 -12.409 -2.61257 0 18.3158 0 -58.4546 15.9083 32.7037 -7.10543e-015 28.8742 0 -179.996 85.0102 -178.545 0 23.8772 -1.42109e-014 -9.8685 -0.727046 -1.50078e-005 2.41094 4.67063 3.47303 14.3201 40.093 -9.33768 -7.10543e-015 3.95207 7.10543e-015 3.18055e-015 0 1.59028e-015 0 2.15568 0 1.76556e-031 -3.18055e-015 3.18055e-015 0 12.455 2.51496 11.4806 1.19271e-015 7.95139e-016 7.10543e-015 4.79039 -1.42109e-014 1.59028e-015 0 3.77691e-015 0 2.63472 0 1.59028e-015 0 3.67752e-015 0 12.455 -0.0798399 -1.34745 1.59028e-015 1.98785e-015 0 5.38919 0 3.18055e-015 1.19271e-015 1.39149e-015 0 3.11376 -1.42109e-014 6.36111e-015 -1.19271e-015 7.55382e-015 0 11.0778 -2.67464 -17.0998 -1.19271e-015 1.59028e-015 0 4.91015 -1.42109e-014 4.96564e-032 1.19271e-015 -2.38542e-015 0 3.11376 0 -3.18055e-015 -1.19271e-015 2.78299e-015 0 9.70055 -5.26943 -49.1909 -5.56597e-015 -5.1684e-015 0 3.95207 0 -6.36111e-015 -3.37934e-015 3.18055e-015 0 2.15568 -1.42109e-014 7.72434e-032 5.56597e-015 -7.95139e-016 -10.0656 -1.42109e-014 0 -5.89732 5.74951 -15.8011 3.55271e-015 -42.9874 0 4.2355e-017 16.1977 8.28006e-016 3.55271e-015 -44.625 -7.10543e-015 -3.01379 -16.8293 -7.62408 0 -3.74821 -3.55271e-015 1.98785e-016 1.59028e-015 1.59028e-015 3.55271e-015 -2.22045e-016 14.6792 1.88081e-016 13.6727 -1.63666e-015 10.0656 0 0 -0.00796377 4.38092 15.3878 8.88178e-016 -42.9874 3.55271e-015 -4.75984e-016 21.7843 3.42515e-015 8.88178e-016 -44.625 0 -2.61267 -9.24416 -5.4272 8.88178e-016 -3.74821 0 3.97569e-016 -7.95139e-016 -0 -8.88178e-016 8.88178e-016 14.6792 -3.97569e-016 -0.899254 -0 
11.8304 92.0544 -24.2188 -7.59571 8.46439 -165.897 0 14.0932 -1.51142 -6.89938 8.81549 0.038811 0 8.6966 3.55271e-015 -2.25097 6.09377 0.890048 3.55271e-015 8.6966 -1.77636e-015 -1.91234 2.63828 0.52326 3.55271e-015 8.6966 0 2.28844 1.2921 -1.0056 0 11.1813 1.11813 -1.32304 5.97141 -1.72379 -7.10543e-015 5.70631 3.55271e-015 -0.773658 -4.00187 -8.89419 0 5.70631 7.10543e-015 0.00717505 -17.8221 -0.664777 0 7.98668 5.19711 102.394 -13.9668 3.03619 0 18.3158 0 61.1368 17.306 -21.272 0 28.8742 0 -179.991 86.2348 175 1.42109e-014 23.8772 1.42109e-014 11.6133 -6.80235 0.000113441 -2.41094 4.67063 3.47303 -6.25865 27.5706 2.91864 0 3.95207 1.42109e-014 -0 0 4.77083e-015 0 2.15568 -2.13163e-014 -3.18055e-015 -6.36111e-015 1.59028e-015 0 12.455 2.51496 0.955106 -3.18055e-015 2.38542e-015 1.42109e-014 4.79039 1.42109e-014 3.18055e-015 1.59028e-015 -4.77083e-015 0 2.63472 1.42109e-014 -3.18055e-015 3.18055e-015 2.38542e-015 0 12.455 -0.0798399 10.0209 -1.59028e-015 3.97569e-015 0 5.38919 -1.42109e-014 -6.36111e-015 -2.38542e-015 -7.95139e-016 0 3.11376 0 6.36111e-015 3.18055e-015 -7.95139e-016 0 11.0778 -2.67464 19.9552 1.59028e-015 3.97569e-015 0 4.91015 1.42109e-014 -4.96564e-031 7.15625e-015 3.97569e-015 0 3.11376 0 -3.31043e-032 7.95139e-016 2.38542e-015 0 9.70055 -5.26943 46.5006 3.37934e-015 1.11319e-014 0 3.95207 2.84217e-014 5.51738e-032 1.98785e-015 -1.59028e-015 0 2.15568 -1.42109e-014 -3.08973e-031 5.56597e-015 3.18055e-015 0 7.98668 5.19711 -101.974 -12.3753 -2.60236 2.84217e-014 18.3158 3.55271e-015 -58.5333 16.0007 32.8287 0 28.8742 1.77636e-015 -179.997 84.9744 -178.827 7.10543e-015 23.8772 -2.84217e-014 -9.83711 -0.740739 -1.12559e-005 2.41094 4.67063 3.47303 13.9999 39.9153 -9.09049 0 3.95207 7.10543e-015 -1.59028e-015 3.18055e-015 -0 7.10543e-015 2.15568 -7.10543e-015 -3.53113e-031 6.36111e-015 3.18055e-015 0 12.455 2.51496 11.4251 1.59028e-015 -3.8763e-015 0 4.79039 -1.42109e-014 6.06912e-032 -1.59028e-015 2.18663e-015 0 2.63472 1.42109e-014 -3.44836e-033 -3.97569e-016 -4.96962e-016 -7.10543e-015 12.455 -0.0798399 -1.4577 7.95139e-016 -7.95139e-016 0 5.38919 0 -3.18055e-015 -1.19271e-015 1.98785e-015 7.10543e-015 3.11376 0 4.13804e-032 -1.19271e-015 1.98785e-015 -1.42109e-014 11.0778 -2.67464 -17.2197 -7.95139e-016 4.77083e-015 1.42109e-014 4.91015 -2.84217e-014 -6.36111e-015 -7.95139e-016 -1.98785e-015 0 3.11376 0 -3.18055e-015 3.97569e-015 -4.37326e-015 0 9.70055 -5.26943 -49.2995 1.59028e-015 1.07344e-014 0 3.95207 1.42109e-014 -7.1726e-032 -5.1684e-015 -7.95139e-016 0 2.15568 -1.42109e-014 -3.18055e-015 2.38542e-015 -4.37326e-015 -10.0656 0 0 -5.85957 5.7634 -15.7061 0 -42.9874 0 3.45596e-016 16.1593 -1.24177e-015 3.55271e-015 -44.625 -3.55271e-015 -3.02496 -16.8123 -7.63438 0 -3.74821 0 -1.98785e-016 1.59028e-015 -0 0 2.22045e-016 14.6792 -1.98785e-016 13.6801 -0 10.0656 -2.84217e-014 0 0.0216147 4.39746 15.4353 8.88178e-016 -42.9874 -3.55271e-015 -1.8291e-015 21.8028 1.02768e-014 0 -44.625 1.77636e-015 -2.61895 -9.25129 -5.39215 0 -3.74821 1.77636e-015 0 0 -3.18055e-015 1.77636e-015 -8.88178e-016 14.6792 8.45652e-016 -0.909899 3.18096e-015 
11.8698 92.0512 -24.192 -7.57401 8.48486 -165.988 -1.77636e-015 14.0932 -1.51142 -6.91001 8.80839 0.026142 0 8.6966 -3.55271e-015 -2.26042 6.09354 0.895809 0 8.6966 3.55271e-015 -1.91148 2.63791 0.551951 0 8.6966 0 2.30277 1.28575 -0.995098 3.55271e-015 11.1813 1.11813 -1.31892 5.93196 -1.71072 0 5.70631 3.55271e-015 -0.737197 -4.02035 -8.82996 0 5.70631 -3.55271e-015 0.0463102 -17.8317 -0.66412 0 7.98668 5.19711 102.451 -13.9642 3.05005 0 18.3158 3.55271e-015 61.3448 17.2041 -20.4614 0 28.8742 1.77636e-015 -180 86.1368 174.782 0 23.8772 1.42109e-014 11.7928 -6.77838 -8.00736e-015 -2.41094 4.67063 3.47303 -5.23539 27.066 2.38746 0 3.95207 1.42109e-014 3.18055e-015 -6.36111e-015 6.36111e-015 0 2.15568 0 1.76556e-031 6.36111e-015 -1.59028e-015 0 12.455 2.51496 1.6298 1.59028e-015 -2.38542e-015 0 4.79039 -1.42109e-014 -3.18055e-015 -3.18055e-015 -0 0 2.63472 0 -3.18055e-015 0 1.59028e-015 0 12.455 -0.0798399 10.9563 -8.74653e-015 -6.36111e-015 0 5.38919 0 3.18055e-015 -7.95139e-016 -7.95139e-016 0 3.11376 0 -6.62086e-032 -1.59028e-015 -2.38542e-015 0 11.0778 -2.67464 20.8782 -2.38542e-015 -1.03368e-014 0 4.91015 0 -1.76556e-031 -6.36111e-015 -1.59028e-015 -1.42109e-014 3.11376 -1.42109e-014 -3.18055e-015 -3.18055e-015 -7.95139e-016 0 9.70055 -5.26943 47.5535 -1.43125e-014 -1.43125e-014 1.42109e-014 3.95207 1.42109e-014 1.59028e-015 2.98177e-015 4.77083e-015 0 2.15568 0 -1.59028e-015 -3.57812e-015 3.18055e-015 0 7.98668 5.19711 -101.959 -12.3416 -2.59215 -2.84217e-014 18.3158 -3.55271e-015 -58.6124 16.093 32.954 -1.42109e-014 28.8742 -3.55271e-015 -180 84.9387 -179.107 0 23.8772 1.42109e-014 -9.80571 -0.754433 1.98802e-016 2.41094 4.67063 3.47303 13.6816 39.7365 -8.84524 7.10543e-015 3.95207 7.10543e-015 -3.18055e-015 -3.18055e-015 -1.59028e-015 0 2.15568 -7.10543e-015 1.59028e-015 3.18055e-015 -0 -7.10543e-015 12.455 2.51496 11.3695 -3.97569e-016 -9.93923e-016 7.10543e-015 4.79039 -1.42109e-014 -1.59028e-015 0 -4.27387e-015 7.10543e-015 2.63472 1.42109e-014 -1.59028e-015 3.97569e-016 -1.2921e-015 -1.42109e-014 12.455 -0.0798399 -1.56795 7.95139e-016 5.1684e-015 0 5.38919 -1.42109e-014 6.36111e-015 1.19271e-015 1.39149e-015 0 3.11376 0 3.18055e-015 1.59028e-015 -1.98785e-015 -7.10543e-015 11.0778 -2.67464 -17.3395 0 2.78299e-015 0 4.91015 0 -6.36111e-015 -1.59028e-015 3.57812e-015 0 3.11376 0 -9.54166e-015 -2.78299e-015 2.38542e-015 -1.42109e-014 9.70055 -5.26943 -49.4082 -9.93923e-016 6.36111e-015 0 3.95207 1.42109e-014 6.36111e-015 3.97569e-016 -1.59028e-015 -1.42109e-014 2.15568 0 9.37955e-032 3.37934e-015 -1.59028e-015 -10.0656 0 7.10543e-015 -5.82184 5.77736 -15.6111 -3.55271e-015 -42.9874 0 3.04549e-018 16.121 -2.06921e-015 0 -44.625 3.55271e-015 -3.03613 -16.7954 -7.64468 0 -3.74821 0 0 0 -1.59028e-015 0 0 14.6792 4.86694e-016 13.6876 -1.63676e-015 10.0656 0 0 0.05118 4.41401 15.4827 -8.88178e-016 -42.9874 3.55271e-015 4.21809e-015 21.8213 -1.02781e-014 -8.88178e-016 -44.625 -1.77636e-015 -2.62523 -9.25842 -5.3571 8.88178e-016 -3.74821 1.77636e-015 0 7.95139e-016 -0 0 -8.88178e-016 14.6792 -3.97569e-016 -0.920545 -0 
